<svg width="76" height="76" viewBox="0 0 76 76" fill="none" xmlns="http://www.w3.org/2000/svg">
<g clip-path="url(#clip0_5_20)">
<path opacity="0.06" d="M55.4343 0H21.4768C9.86712 0 0.455566 9.41155 0.455566 21.0213V54.9787C0.455566 66.5885 9.86712 76 21.4768 76H55.4343C67.044 76 76.4556 66.5885 76.4556 54.9787V21.0213C76.4556 9.41155 67.044 0 55.4343 0Z" fill="#F6CA4F"/>
<path d="M38.4556 63.8788C52.7481 63.8788 64.3344 52.2925 64.3344 38.0001C64.3344 23.7076 52.7481 12.1213 38.4556 12.1213C24.1632 12.1213 12.5769 23.7076 12.5769 38.0001C12.5769 52.2925 24.1632 63.8788 38.4556 63.8788Z" fill="#FF6D35"/>
<path d="M48.0061 49.6729H28.905C26.5704 49.6729 24.6603 47.7628 24.6603 45.4282V30.5718C24.6603 28.2373 26.5704 26.3271 28.905 26.3271H48.0061C50.3407 26.3271 52.2508 28.2373 52.2508 30.5718V45.4282C52.2508 47.7628 50.3407 49.6729 48.0061 49.6729Z" stroke="white" stroke-width="2" stroke-miterlimit="10" stroke-linecap="round" stroke-linejoin="round"/>
<path d="M24.6603 31.6329L38.4556 40.1223L52.2508 31.6329" stroke="white" stroke-width="2" stroke-miterlimit="10" stroke-linecap="round" stroke-linejoin="round"/>
</g>
<defs>
<clipPath id="clip0_5_20">
<rect width="76" height="76" fill="white" transform="translate(0.455566)"/>
</clipPath>
</defs>
</svg>
