<svg width="77" height="76" viewBox="0 0 77 76" fill="none" xmlns="http://www.w3.org/2000/svg">
<g clip-path="url(#clip0_1_242)">
<path opacity="0.06" d="M55.2855 0.265625H21.5096C9.96195 0.265625 0.600708 9.62687 0.600708 21.1745V54.9505C0.600708 66.4981 9.96195 75.8594 21.5096 75.8594H55.2855C66.8332 75.8594 76.1945 66.4981 76.1945 54.9505V21.1745C76.1945 9.62687 66.8332 0.265625 55.2855 0.265625Z" fill="#FF6F35"/>
<path d="M38.3976 63.8029C52.6137 63.8029 64.138 52.2786 64.138 38.0625C64.138 23.8465 52.6137 12.3221 38.3976 12.3221C24.1816 12.3221 12.6572 23.8465 12.6572 38.0625C12.6572 52.2786 24.1816 63.8029 38.3976 63.8029Z" fill="#FFCD1D"/>
<path d="M38.3976 21.8447V54.2804" stroke="white" stroke-width="2.41257" stroke-linecap="round" stroke-linejoin="round"/>
<path d="M45.7693 27.7421H34.7118C33.3432 27.7421 32.0307 28.2857 31.0629 29.2535C30.0951 30.2211 29.5515 31.5337 29.5515 32.9022C29.5515 34.2708 30.0951 35.5833 31.0629 36.5511C32.0307 37.5188 33.3432 38.0625 34.7118 38.0625H42.0834C43.452 38.0625 44.7645 38.6061 45.7323 39.5739C46.7 40.5415 47.2437 41.8541 47.2437 43.2227C47.2437 44.5913 46.7 45.9038 45.7323 46.8715C44.7645 47.8392 43.452 48.3829 42.0834 48.3829H29.5515" stroke="white" stroke-width="2.41257" stroke-linecap="round" stroke-linejoin="round"/>
</g>
<defs>
<clipPath id="clip0_1_242">
<rect width="75.5938" height="75.5938" fill="white" transform="translate(0.600708 0.265625)"/>
</clipPath>
</defs>
</svg>
