<svg width="77" height="77" viewBox="0 0 77 77" fill="none" xmlns="http://www.w3.org/2000/svg">
<g clip-path="url(#clip0_1_254)">
<path opacity="0.06" d="M55.2855 0.859375H21.5096C9.96195 0.859375 0.600708 10.2206 0.600708 21.7683V55.5442C0.600708 67.0919 9.96195 76.4531 21.5096 76.4531H55.2855C66.8332 76.4531 76.1945 67.0919 76.1945 55.5442V21.7683C76.1945 10.2206 66.8332 0.859375 55.2855 0.859375Z" fill="#5CC97B"/>
<path d="M38.3976 64.3967C52.6137 64.3967 64.138 52.8723 64.138 38.6563C64.138 24.4402 52.6137 12.9159 38.3976 12.9159C24.1816 12.9159 12.6572 24.4402 12.6572 38.6563C12.6572 52.8723 24.1816 64.3967 38.3976 64.3967Z" fill="#5CC97B"/>
<path fill-rule="evenodd" clip-rule="evenodd" d="M41.1546 45.0292C39.3116 46.2479 37.0819 46.9189 34.7061 46.8208C28.6969 46.5726 24.0265 41.4995 24.2747 35.4901C24.5229 29.4807 29.5957 24.8111 35.6048 25.0593C41.613 25.3073 46.2845 30.3794 46.0363 36.3889C45.9488 38.5072 45.2617 40.4592 44.1454 42.088L51.482 49.2115C52.3872 50.1929 52.3548 51.7099 51.4248 52.6499L51.382 52.6893L51.3368 52.7284C50.3258 53.5779 48.8112 53.4868 47.9069 52.5046L41.1546 45.0292ZM34.8098 44.309C30.1876 44.1181 26.5948 40.2157 26.7857 35.5935C26.9766 30.9713 30.8789 27.3785 35.5012 27.5694C40.1234 27.7603 43.7163 31.6626 43.5254 36.2848C43.3345 40.9071 39.4321 44.4999 34.8098 44.309Z" fill="white"/>
</g>
<defs>
<clipPath id="clip0_1_254">
<rect width="75.5938" height="75.5938" fill="white" transform="translate(0.600708 0.859375)"/>
</clipPath>
</defs>
</svg>
