<svg width="76" height="76" viewBox="0 0 76 76" fill="none" xmlns="http://www.w3.org/2000/svg">
<g clip-path="url(#clip0_1_229)">
<path opacity="0.06" d="M54.8592 0.265625H21.0832C9.53556 0.265625 0.174316 9.62687 0.174316 21.1745V54.9505C0.174316 66.4981 9.53556 75.8594 21.0832 75.8594H54.8592C66.4068 75.8594 75.7681 66.4981 75.7681 54.9505V21.1745C75.7681 9.62687 66.4068 0.265625 54.8592 0.265625Z" fill="#0089FF"/>
<path d="M37.9713 63.8029C52.1873 63.8029 63.7117 52.2786 63.7117 38.0625C63.7117 23.8465 52.1873 12.3221 37.9713 12.3221C23.7552 12.3221 12.2309 23.8465 12.2309 38.0625C12.2309 52.2786 23.7552 63.8029 37.9713 63.8029Z" fill="#1B76FF"/>
<path fill-rule="evenodd" clip-rule="evenodd" d="M24.5613 32.9688H29.2071V51.1299H24.5613C23.8619 51.1299 23.2947 50.5898 23.2947 49.9236V34.175C23.2947 33.5088 23.8619 32.9688 24.5613 32.9688Z" stroke="white" stroke-width="1.60838" stroke-linecap="round" stroke-linejoin="round"/>
<path fill-rule="evenodd" clip-rule="evenodd" d="M51.2352 47.7297C50.9411 49.9931 49.4288 51.1299 46.7403 51.1299H32.6727C30.7614 51.1299 29.2072 49.667 29.2072 47.8681V32.9905C33.6684 32.5556 35.899 30.9982 35.899 26.8104V24.8035C35.899 22.6883 37.6995 20.9735 39.9205 20.9735C40.7669 20.9735 41.5917 21.2278 42.2775 21.7003C43.2226 22.3526 43.8249 23.5882 43.8249 25.3673V31.1765C43.8249 31.6707 44.6614 32.0759 45.4979 32.0759H49.9854C51.8758 32.0759 53.4091 33.4992 53.451 35.2685C53.4791 36.448 52.7405 40.0991 51.2352 47.7297Z" stroke="white" stroke-width="1.60838" stroke-linecap="round" stroke-linejoin="round"/>
</g>
<defs>
<clipPath id="clip0_1_229">
<rect width="75.5938" height="75.5938" fill="white" transform="translate(0.174316 0.265625)"/>
</clipPath>
</defs>
</svg>
