<svg width="60" height="15" viewBox="0 0 60 15" fill="none" xmlns="http://www.w3.org/2000/svg">
<path d="M19.7519 5.816C19.7519 4.74933 18.7285 3.63067 16.9499 3.63067C14.9552 3.63067 12.7652 5.09933 12.4299 8.03067C12.0872 10.9907 13.9212 12.306 15.7699 12.306C17.6185 12.306 18.5865 11.5827 19.5765 10.618C18.7252 9.54467 17.6259 10.0407 17.4152 10.15C17.0665 10.344 16.6712 10.4407 16.2725 10.428C15.5592 10.428 14.8312 10.1067 14.8312 8.76933C19.4019 8.316 19.7512 6.876 19.7512 5.816H19.7519ZM17.4865 5.99133C17.4572 6.32 17.3265 6.88267 15.0119 7.198C15.4985 5.458 16.4319 5.32733 16.8605 5.32733C16.8699 5.32667 16.8792 5.32667 16.8879 5.32667C17.2205 5.32667 17.4939 5.6 17.4939 5.93267C17.4939 5.95267 17.4932 5.97267 17.4912 5.99267L17.4865 5.99133ZM9.74519 6.27667L8.68252 9.63133L7.93252 3.80667C6.25919 3.80667 5.35919 5.00533 4.88985 6.26933L3.59385 9.63867L3.41186 6.30533C3.31319 4.756 1.89852 3.81333 0.755188 3.81333L2.13785 12.24C3.89119 12.2333 4.83786 11.0413 5.33319 9.77733L6.42919 6.91267C6.43919 7.02933 7.18652 12.2407 7.18652 12.2407C8.94785 12.2407 9.89452 11.1227 10.4019 9.902L12.8685 3.814C11.1319 3.814 10.2165 5.00533 9.74385 6.27667H9.74519ZM26.2159 3.61C25.1312 3.61 24.3025 4.202 23.6025 5.07133V5.06467L24.2279 0C22.7865 0 21.6145 1.25733 21.3892 3.128L20.3052 12.1747C21.1352 12.1747 22.0159 11.9333 22.4892 11.3193C22.9119 11.8673 23.5445 12.306 24.4839 12.306C26.9145 12.306 28.5819 9.47067 28.5819 6.81C28.5672 4.38333 27.3952 3.61667 26.2232 3.61667L26.2159 3.61ZM25.9892 7.95867C25.7359 9.442 24.9119 10.4507 24.1192 10.4507C23.3265 10.4507 22.9765 10.0927 22.9765 10.0927C23.1299 8.79267 23.2245 7.99533 23.5152 7.308C23.8059 6.62067 24.4979 5.52467 25.2185 5.52467C25.9252 5.52467 26.2452 6.46733 25.9899 7.958L25.9892 7.95867ZM34.6439 3.80733H32.9479L32.9545 3.71933C33.0712 2.60867 33.3332 2.024 34.1972 1.92867C34.7872 1.87 35.0492 1.56333 35.1145 1.22733L35.3259 0.0506668C31.9259 0.0286668 30.8499 1.504 30.5759 3.756L30.5692 3.80733H30.5325C29.9792 3.80733 29.3685 4.436 29.2659 5.23267L29.2292 5.52467H30.3652L29.4119 13.4313L29.1199 14.8493C29.1565 14.8493 29.1999 14.856 29.2359 14.856C30.8292 14.7973 31.8492 13.5333 32.0745 11.6987L32.8185 5.52333H33.3519C33.8759 5.52333 34.4879 4.99667 34.5945 4.12L34.6439 3.80733ZM43.4652 3.66067C41.5072 3.66067 39.6585 5.10733 39.0919 7.38067C38.5252 9.654 39.3839 12.3427 42.2652 12.3427C45.1465 12.3427 46.7965 9.54267 46.7965 7.212C46.7992 4.89533 45.2352 3.66 43.4659 3.66L43.4652 3.66067ZM44.2585 7.88467C44.1572 8.91533 43.7052 10.4793 42.4679 10.4793C41.2305 10.4793 41.3979 8.65267 41.5179 7.78267C41.6492 6.85467 42.1659 5.532 43.2792 5.532C44.2805 5.532 44.3745 6.72333 44.2592 7.88533L44.2585 7.88467ZM56.4719 6.26933L55.4092 9.624C55.3805 9.36067 54.6599 3.79933 54.6599 3.79933C52.9865 3.79933 52.0905 4.998 51.6212 6.262L50.3252 9.63133C50.3185 9.39 50.1432 6.298 50.1432 6.298C50.0379 4.74867 48.6245 3.806 47.4765 3.806L48.8519 12.2327C50.6052 12.226 51.5519 11.034 52.0472 9.77L53.1392 6.90533C53.1459 7.022 53.8965 12.2333 53.8965 12.2333C55.6579 12.2333 56.6005 11.1153 57.1119 9.89467L59.5805 3.80667C57.8485 3.80667 56.9312 4.998 56.4652 6.26933H56.4719ZM36.2452 0.0493342L34.8185 11.6027L34.5265 13.028C34.5625 13.028 34.6065 13.0347 34.6425 13.0347C36.1772 13.0127 37.2692 11.6613 37.4739 9.958L38.2959 3.32933C38.5452 1.30467 37.3445 0.0480003 36.2452 0.0480003V0.0493342Z" fill="white"/>
</svg>
