<svg width="165" height="35" viewBox="0 0 165 35" fill="none" xmlns="http://www.w3.org/2000/svg">
<path fill-rule="evenodd" clip-rule="evenodd" d="M6.8519 9.23609C9.59225 5.73387 13.9805 3.46493 18.9264 3.46493C23.9014 3.46493 28.3119 5.76065 31.049 9.29799C30.9324 9.41181 30.8264 9.52978 30.7303 9.64759C30.2289 10.2645 29.8517 11.059 29.5495 11.8659C28.941 13.4887 28.4768 15.6085 28.047 17.5935L28.0088 17.7719C27.58 19.7533 27.1814 21.5959 26.6994 22.9638C26.4829 23.5783 26.2776 24.0128 26.0955 24.291C25.9055 24.0105 25.69 23.5708 25.4618 22.9475C24.9463 21.5403 24.5128 19.6263 24.0533 17.5827L24.0384 17.5157V17.5157C23.5967 15.5527 23.1283 13.4699 22.5442 11.8756C22.2507 11.0747 21.8907 10.2881 21.4198 9.67694C20.9576 9.07718 20.1883 8.40029 19.0631 8.40029C17.945 8.40029 17.1721 9.06983 16.7033 9.66287C16.2233 10.2701 15.849 11.0534 15.5408 11.8547C14.9199 13.4682 14.4123 15.5789 13.9399 17.5666L13.8912 17.7719C13.4234 19.7409 12.9861 21.5818 12.4897 22.9523C12.3002 23.4757 12.1214 23.8739 11.9596 24.1583C11.8014 23.8752 11.627 23.4797 11.4427 22.9607C10.9665 21.6194 10.5494 19.8301 10.1013 17.9083L10.0229 17.5719C9.5587 15.583 9.05507 13.4685 8.42538 11.85C8.11253 11.0457 7.72986 10.2584 7.23468 9.64838C7.12254 9.5103 6.99512 9.37013 6.8519 9.23609ZM5.19338 11.9253C5.32389 12.1701 5.46197 12.4736 5.60471 12.8406C6.14977 14.2416 6.61151 16.1533 7.087 18.1905L7.17956 18.5875C7.61247 20.4464 8.06281 22.38 8.59327 23.8739C8.87541 24.6684 9.21613 25.4466 9.6543 26.0514C10.0687 26.6235 10.8121 27.3623 11.9552 27.3623C13.0949 27.3623 13.8401 26.627 14.2573 26.0576C14.6992 25.4542 15.0455 24.6769 15.3333 23.8818C15.8851 22.3584 16.3549 20.3794 16.8045 18.4855V18.4854L16.8733 18.1959C17.3577 16.1574 17.8241 14.2419 18.3652 12.8358C18.6158 12.1843 18.8505 11.7305 19.0547 11.449C19.2484 11.7281 19.4695 12.1747 19.7042 12.815C20.2197 14.2222 20.6528 16.1361 21.1125 18.1798L21.1275 18.2467C21.5691 20.2098 22.0375 22.2926 22.6216 23.8867C22.9151 24.6879 23.2751 25.4745 23.746 26.0855C24.2083 26.6854 24.9775 27.3623 26.1025 27.3623C27.2335 27.3623 28 26.6792 28.4567 26.074C28.9205 25.4599 29.2692 24.6707 29.551 23.8708C30.0924 22.3344 30.5229 20.3408 30.9335 18.4444V18.4443L30.9923 18.169C31.4343 16.1278 31.8585 14.2214 32.3825 12.8246C32.4959 12.5208 32.6077 12.2617 32.7143 12.0441C33.517 13.7921 33.9622 15.7223 33.9622 17.7513C33.9622 25.6413 27.2307 32.0377 18.9264 32.0377C10.6222 32.0377 3.89038 25.6413 3.89038 17.7513C3.89038 15.6762 4.356 13.7044 5.19338 11.9253ZM18.9264 0.607666C8.9614 0.607666 0.883179 8.28312 0.883179 17.7513C0.883179 27.2194 8.9614 34.8948 18.9264 34.8948C28.8916 34.8948 36.9694 27.2194 36.9694 17.7513C36.9694 8.28312 28.8916 0.607666 18.9264 0.607666ZM19.2701 11.2098C19.2701 11.2101 19.2666 11.2128 19.2596 11.2167C19.2666 11.2114 19.2701 11.2095 19.2701 11.2098ZM18.8545 11.2117C18.8475 11.2077 18.8441 11.2049 18.8441 11.2045C18.8441 11.2042 18.8476 11.2062 18.8545 11.2117ZM25.8739 24.5623C25.8739 24.5623 25.8771 24.5592 25.8836 24.5552C25.8771 24.5605 25.8739 24.5627 25.8739 24.5623ZM26.3111 24.5508C26.3181 24.5548 26.3218 24.5574 26.3218 24.5579C26.3218 24.5583 26.3181 24.5561 26.3111 24.5508ZM11.647 24.5879C11.6469 24.5875 11.6513 24.5835 11.66 24.5778C11.6513 24.5853 11.647 24.5884 11.647 24.5879ZM12.256 24.5804C12.2646 24.5862 12.2689 24.5901 12.2689 24.5906C12.2689 24.591 12.2645 24.5884 12.256 24.5804Z" fill="#81818B"/>
<path d="M46.9324 27.9007L42.557 13.6801H46.3895L48.9846 23.9154L52.0018 13.6801H56.2868L59.3045 23.9154L61.9295 13.6801H65.762L61.3562 27.9007H57.3431L54.1443 17.2639L50.946 27.9007H46.9324Z" fill="#81818B"/>
<path d="M71.3853 28.2449C70.098 28.2449 69.0417 28.0533 68.2169 27.6711C67.3927 27.2698 66.779 26.7442 66.3763 26.0943C65.9741 25.4444 65.7731 24.7277 65.7731 23.9442C65.7731 22.6254 66.3159 21.5549 67.4022 20.733C68.4884 19.9112 70.1185 19.5002 72.291 19.5002H76.093V19.1562C76.093 18.1813 75.8011 17.4646 75.2178 17.0059C74.6345 16.5471 73.91 16.3178 73.0454 16.3178C72.2605 16.3178 71.5764 16.4993 70.9932 16.8625C70.4099 17.2066 70.0476 17.7226 69.9069 18.4107H66.1348C66.2356 17.3786 66.5979 16.4802 67.221 15.7157C67.8652 14.9512 68.69 14.3682 69.6954 13.9668C70.7018 13.5463 71.8279 13.3361 73.0753 13.3361C75.2079 13.3361 76.8873 13.8425 78.1148 14.8556C79.3417 15.8686 79.9554 17.3022 79.9554 19.1562V27.9007H76.6658L76.304 25.6072C75.8615 26.3717 75.2378 27.0022 74.4335 27.4995C73.6486 27.9963 72.6327 28.2449 71.3853 28.2449ZM72.2605 25.3776C73.3672 25.3776 74.2219 25.0334 74.8251 24.3455C75.4488 23.6575 75.8415 22.8067 76.0027 21.7938H72.7131C71.6872 21.7938 70.9533 21.9754 70.5102 22.3386C70.0681 22.6824 69.8465 23.1129 69.8465 23.6287C69.8465 24.1831 70.0681 24.6131 70.5102 24.9188C70.9533 25.2245 71.536 25.3776 72.2605 25.3776Z" fill="#81818B"/>
<path d="M86.0354 27.9007L80.5439 13.6801H84.587L88.389 24.4317L92.1911 13.6801H96.2346L90.7127 27.9007H86.0354Z" fill="#81818B"/>
<path d="M103.999 28.2449C102.49 28.2449 101.153 27.9388 99.9857 27.3273C98.8191 26.7155 97.904 25.8554 97.2399 24.7467C96.5758 23.6385 96.2445 22.3577 96.2445 20.905C96.2445 19.4333 96.5663 18.124 97.2095 16.9772C97.8736 15.8304 98.7787 14.9416 99.9258 14.3108C101.092 13.661 102.46 13.3361 104.029 13.3361C105.498 13.3361 106.795 13.6419 107.922 14.2535C109.048 14.8651 109.924 15.7061 110.547 16.7765C111.191 17.8277 111.513 19.0032 111.513 20.303C111.513 20.5132 111.503 20.733 111.483 20.9624C111.483 21.1918 111.472 21.4307 111.452 21.6792H100.076C100.157 22.7877 100.559 23.6575 101.283 24.2884C102.027 24.9188 102.923 25.2343 103.969 25.2343C104.753 25.2343 105.407 25.0719 105.93 24.7467C106.473 24.403 106.876 23.9632 107.137 23.4279H111.06C110.779 24.3264 110.306 25.1485 109.642 25.8939C108.998 26.6199 108.194 27.1933 107.228 27.614C106.283 28.0343 105.206 28.2449 103.999 28.2449ZM104.029 16.3178C103.084 16.3178 102.249 16.5758 101.524 17.0919C100.8 17.5888 100.338 18.3534 100.136 19.3855H107.59C107.529 18.4489 107.168 17.7035 106.504 17.1492C105.839 16.5949 105.015 16.3178 104.029 16.3178Z" fill="#81818B"/>
<path d="M113.554 27.9007V7.25781H117.417V27.9007H113.554Z" fill="#81818B"/>
<path d="M127.428 28.2449C125.92 28.2449 124.582 27.9388 123.415 27.3273C122.248 26.7155 121.333 25.8554 120.669 24.7467C120.005 23.6385 119.674 22.3577 119.674 20.905C119.674 19.4333 119.996 18.124 120.639 16.9772C121.303 15.8304 122.208 14.9416 123.355 14.3108C124.522 13.661 125.889 13.3361 127.458 13.3361C128.927 13.3361 130.225 13.6419 131.351 14.2535C132.477 14.8651 133.353 15.7061 133.976 16.7765C134.62 17.8277 134.942 19.0032 134.942 20.303C134.942 20.5132 134.932 20.733 134.912 20.9624C134.912 21.1918 134.901 21.4307 134.881 21.6792H123.506C123.586 22.7877 123.989 23.6575 124.713 24.2884C125.457 24.9188 126.352 25.2343 127.399 25.2343C128.182 25.2343 128.837 25.0719 129.359 24.7467C129.903 24.403 130.305 23.9632 130.566 23.4279H134.49C134.208 24.3264 133.735 25.1485 133.071 25.8939C132.427 26.6199 131.623 27.1933 130.657 27.614C129.712 28.0343 128.635 28.2449 127.428 28.2449ZM127.458 16.3178C126.513 16.3178 125.678 16.5758 124.954 17.0919C124.23 17.5888 123.767 18.3534 123.566 19.3855H131.019C130.959 18.4489 130.597 17.7035 129.933 17.1492C129.269 16.5949 128.444 16.3178 127.458 16.3178Z" fill="#81818B"/>
<path d="M143.17 28.2449C141.842 28.2449 140.675 28.044 139.669 27.6428C138.663 27.222 137.858 26.6487 137.255 25.9222C136.652 25.1962 136.289 24.3552 136.169 23.3996H140.061C140.182 23.9535 140.504 24.4317 141.027 24.833C141.57 25.2152 142.264 25.4064 143.109 25.4064C143.954 25.4064 144.568 25.244 144.949 24.9188C145.352 24.5941 145.553 24.2212 145.553 23.8008C145.553 23.189 145.272 22.778 144.708 22.5678C144.145 22.3386 143.36 22.1188 142.354 21.9085C141.711 21.7747 141.058 21.6123 140.393 21.4211C139.729 21.23 139.116 20.991 138.553 20.7044C138.009 20.3985 137.567 20.0163 137.224 19.5575C136.883 19.0797 136.712 18.4967 136.712 17.8086C136.712 16.5471 137.235 15.4864 138.281 14.6262C139.347 13.7661 140.835 13.3361 142.747 13.3361C144.517 13.3361 145.925 13.7279 146.971 14.5115C148.037 15.2952 148.671 16.3751 148.873 17.7513H145.221C145 16.7001 144.165 16.1744 142.717 16.1744C141.993 16.1744 141.429 16.3082 141.027 16.5758C140.645 16.8434 140.454 17.1779 140.454 17.5793C140.454 17.9998 140.745 18.3343 141.329 18.5828C141.912 18.8312 142.687 19.0606 143.652 19.2709C144.698 19.5002 145.653 19.7582 146.519 20.0449C147.404 20.3125 148.108 20.7235 148.631 21.2778C149.154 21.8129 149.416 22.5869 149.416 23.6C149.436 24.4795 149.194 25.2723 148.692 25.9797C148.189 26.6867 147.465 27.2411 146.519 27.6428C145.574 28.044 144.457 28.2449 143.17 28.2449Z" fill="#81818B"/>
<path d="M157.816 28.2449C156.488 28.2449 155.321 28.044 154.316 27.6428C153.31 27.222 152.505 26.6487 151.902 25.9222C151.298 25.1962 150.936 24.3552 150.816 23.3996H154.708C154.829 23.9535 155.151 24.4317 155.673 24.833C156.217 25.2152 156.91 25.4064 157.756 25.4064C158.6 25.4064 159.214 25.244 159.596 24.9188C159.998 24.5941 160.2 24.2212 160.2 23.8008C160.2 23.189 159.918 22.778 159.355 22.5678C158.792 22.3386 158.007 22.1188 157.001 21.9085C156.358 21.7747 155.704 21.6123 155.04 21.4211C154.376 21.23 153.763 20.991 153.199 20.7044C152.656 20.3985 152.213 20.0163 151.871 19.5575C151.529 19.0797 151.359 18.4967 151.359 17.8086C151.359 16.5471 151.882 15.4864 152.928 14.6262C153.994 13.7661 155.482 13.3361 157.393 13.3361C159.164 13.3361 160.572 13.7279 161.618 14.5115C162.684 15.2952 163.317 16.3751 163.519 17.7513H159.868C159.647 16.7001 158.812 16.1744 157.363 16.1744C156.639 16.1744 156.076 16.3082 155.673 16.5758C155.291 16.8434 155.1 17.1779 155.1 17.5793C155.1 17.9998 155.392 18.3343 155.975 18.5828C156.559 18.8312 157.333 19.0606 158.298 19.2709C159.345 19.5002 160.3 19.7582 161.166 20.0449C162.051 20.3125 162.755 20.7235 163.278 21.2778C163.8 21.8129 164.062 22.5869 164.062 23.6C164.082 24.4795 163.841 25.2723 163.338 25.9797C162.835 26.6867 162.111 27.2411 161.166 27.6428C160.22 28.044 159.103 28.2449 157.816 28.2449Z" fill="#81818B"/>
</svg>
