<svg width="167" height="39" viewBox="0 0 167 39" fill="none" xmlns="http://www.w3.org/2000/svg">
<path d="M49.5048 10.8004C51.0924 10.8004 52.4663 11.0559 53.6271 11.567C54.8047 12.0781 55.7087 12.8034 56.3403 13.7432C56.9719 14.6829 57.2879 15.7957 57.2879 17.0816C57.2879 18.351 56.9719 19.4638 56.3403 20.42C55.7087 21.3597 54.8047 22.0851 53.6271 22.5964C52.4663 23.0907 51.0924 23.3381 49.5048 23.3381H45.8954V28.1109H41.7485V10.8004H49.5048ZM49.2749 20.0738C50.5202 20.0738 51.4678 19.8183 52.1162 19.3072C52.7651 18.7796 53.089 18.0378 53.089 17.0816C53.089 16.1089 52.7651 15.367 52.1162 14.856C51.4678 14.3284 50.5202 14.0647 49.2749 14.0647H45.8954V20.0738H49.2749Z" fill="#81818B"/>
<path d="M62.5017 16.5623C62.9789 15.9194 63.6194 15.433 64.4211 15.1033C65.2406 14.7736 66.1788 14.6088 67.2372 14.6088V18.1697C66.7936 18.1368 66.4949 18.1203 66.341 18.1203C65.1976 18.1203 64.3019 18.4335 63.6536 19.06C63.0047 19.6699 62.6802 20.5932 62.6802 21.8296V28.111H58.6871V14.8066H62.5017V16.5623Z" fill="#81818B"/>
<path d="M74.7605 28.3085C73.3099 28.3085 72.0042 28.0203 70.844 27.4431C69.7005 26.8498 68.8044 26.0334 68.156 24.9948C67.5076 23.9562 67.1832 22.7774 67.1832 21.4587C67.1832 20.1398 67.5076 18.9611 68.156 17.9224C68.8044 16.8838 69.7005 16.076 70.844 15.499C72.0042 14.9055 73.3099 14.6088 74.7605 14.6088C76.2111 14.6088 77.5083 14.9055 78.6518 15.499C79.7952 16.076 80.6914 16.8838 81.3403 17.9224C81.9882 18.9611 82.3126 20.1398 82.3126 21.4587C82.3126 22.7774 81.9882 23.9562 81.3403 24.9948C80.6914 26.0334 79.7952 26.8498 78.6518 27.4431C77.5083 28.0203 76.2111 28.3085 74.7605 28.3085ZM74.7605 25.1432C75.7848 25.1432 76.6211 24.8138 77.2695 24.1541C77.9352 23.4783 78.2675 22.5799 78.2675 21.4587C78.2675 20.3377 77.9352 19.4474 77.2695 18.7879C76.6211 18.112 75.7848 17.774 74.7605 17.774C73.7367 17.774 72.892 18.112 72.2263 18.7879C71.5606 19.4474 71.2278 20.3377 71.2278 21.4587C71.2278 22.5799 71.5606 23.4783 72.2263 24.1541C72.892 24.8138 73.7367 25.1432 74.7605 25.1432Z" fill="#81818B"/>
<path d="M100.419 10.8004V28.1109H97.0147L88.0797 17.6009V28.1109H83.9837V10.8004H87.4141L96.3233 21.3103V10.8004H100.419Z" fill="#81818B"/>
<path d="M108.653 14.6088C110.786 14.6088 112.424 15.1033 113.568 16.0925C114.711 17.0652 115.283 18.5407 115.283 20.519V28.111H111.546V26.4539C110.795 27.6905 109.395 28.3085 107.347 28.3085C106.289 28.3085 105.367 28.1357 104.582 27.7894C103.814 27.4431 103.225 26.9652 102.816 26.355C102.406 25.7452 102.201 25.0525 102.201 24.2778C102.201 23.0413 102.679 22.0687 103.635 21.3598C104.608 20.6509 106.101 20.2965 108.115 20.2965H111.289C111.289 19.4556 111.025 18.8127 110.496 18.3676C109.966 17.9059 109.173 17.6751 108.115 17.6751C107.381 17.6751 106.656 17.7905 105.939 18.0214C105.239 18.2357 104.642 18.5325 104.147 18.9116L102.714 16.2161C103.464 15.7051 104.36 15.3094 105.401 15.0291C106.459 14.7489 107.544 14.6088 108.653 14.6088ZM108.346 25.7122C109.028 25.7122 109.634 25.5638 110.163 25.2669C110.692 24.9536 111.067 24.5004 111.289 23.9067V22.547H108.551C106.912 22.547 106.092 23.066 106.092 24.1047C106.092 24.5994 106.289 24.9948 106.682 25.2917C107.091 25.572 107.645 25.7122 108.346 25.7122Z" fill="#81818B"/>
<path d="M126.501 27.4678C126.109 27.7481 125.622 27.9625 125.042 28.1109C124.479 28.2425 123.881 28.3084 123.25 28.3084C121.612 28.3084 120.34 27.9048 119.435 27.0971C118.548 26.289 118.104 25.102 118.104 23.536V18.0708H115.979V15.1033H118.104V11.8638H122.098V15.1033H125.528V18.0708H122.098V23.4865C122.098 24.0469 122.243 24.4839 122.533 24.7972C122.84 25.0937 123.267 25.2421 123.813 25.2421C124.444 25.2421 124.982 25.0772 125.426 24.7478L126.501 27.4678Z" fill="#81818B"/>
<path d="M141.338 14.8066V28.111H137.549V26.5282C137.02 27.105 136.389 27.5503 135.655 27.8637C134.921 28.1605 134.128 28.3085 133.274 28.3085C131.465 28.3085 130.031 27.806 128.973 26.8003C127.915 25.7947 127.386 24.3026 127.386 22.3244V14.8066H131.38V21.7554C131.38 23.8985 132.31 24.9701 134.17 24.9701C135.126 24.9701 135.894 24.6737 136.474 24.0799C137.054 23.4701 137.344 22.5718 137.344 21.3846V14.8066H141.338Z" fill="#81818B"/>
<path d="M147.572 16.5623C148.05 15.9194 148.69 15.433 149.492 15.1033C150.311 14.7736 151.25 14.6088 152.309 14.6088V18.1697C151.865 18.1368 151.566 18.1203 151.413 18.1203C150.269 18.1203 149.373 18.4335 148.725 19.06C148.076 19.6699 147.752 20.5932 147.752 21.8296V28.111H143.758V14.8066H147.572V16.5623Z" fill="#81818B"/>
<path d="M166.769 21.5084C166.769 21.5574 166.744 21.9037 166.693 22.547H156.274C156.461 23.3712 156.905 24.0222 157.604 24.5004C158.304 24.9783 159.175 25.2174 160.216 25.2174C160.932 25.2174 161.564 25.1185 162.11 24.9206C162.673 24.7066 163.194 24.3768 163.671 23.9315L165.797 26.1571C164.5 27.5915 162.605 28.3085 160.113 28.3085C158.56 28.3085 157.187 28.0203 155.992 27.4431C154.797 26.8498 153.875 26.0334 153.226 24.9948C152.578 23.9562 152.254 22.7774 152.254 21.4587C152.254 20.1563 152.57 18.9858 153.201 17.9472C153.85 16.892 154.728 16.076 155.838 15.499C156.964 14.9055 158.219 14.6088 159.602 14.6088C160.95 14.6088 162.17 14.889 163.262 15.4495C164.354 16.01 165.207 16.8179 165.822 17.873C166.454 18.9116 166.769 20.1233 166.769 21.5084ZM159.627 17.5268C158.723 17.5268 157.962 17.774 157.349 18.2686C156.734 18.7633 156.359 19.4392 156.222 20.2965H163.006C162.87 19.4556 162.494 18.7879 161.88 18.2934C161.265 17.7823 160.514 17.5268 159.627 17.5268Z" fill="#81818B"/>
<path fill-rule="evenodd" clip-rule="evenodd" d="M19.0047 1.16018C18.3962 0.820141 17.6459 0.820141 17.0374 1.16018C12.7154 3.57524 9.80037 8.09386 9.80037 13.2725C9.80037 14.0105 9.85964 14.7352 9.97367 15.4423C6.99844 14.4663 3.77694 14.8214 1.14564 16.286C0.536585 16.6251 0.161419 17.2526 0.162049 17.9317C0.165147 21.5141 2.09169 25.0055 5.54199 26.9297C7.23469 27.8739 9.08222 28.3225 10.9046 28.3233C10.6273 29.0824 10.4765 29.8987 10.4765 30.7493C10.4765 34.7743 13.8542 38.0366 18.0208 38.0366C22.1875 38.0366 25.565 34.7743 25.565 30.7493C25.565 29.8966 25.4135 29.0786 25.1352 28.3184C26.849 28.266 28.575 27.8166 30.1645 26.9297C33.6152 25.0055 35.5414 21.5141 35.5441 17.9318C35.5451 17.2528 35.1697 16.6252 34.5607 16.2862C32.0334 14.8792 28.9609 14.4961 26.0858 15.3333C26.1886 14.6608 26.2415 13.9727 26.2415 13.2725C26.2415 8.09386 23.3267 3.57524 19.0047 1.16018ZM13.7291 13.2725C13.7291 9.90963 15.4147 6.92531 18.021 5.06771C20.6274 6.92531 22.313 9.90963 22.313 13.2725C22.313 16.6352 20.6274 19.6196 18.021 21.4771C15.4147 19.6196 13.7291 16.6352 13.7291 13.2725ZM25.7682 19.5744C27.5822 18.5626 29.6784 18.445 31.5094 19.0851C31.1682 20.937 30.0143 22.6315 28.2003 23.6433C26.3862 24.655 24.2901 24.7725 22.459 24.1327C22.8005 22.2806 23.9542 20.5861 25.7682 19.5744ZM4.19715 19.085C6.02814 18.4448 8.12425 18.5625 9.93828 19.5742C11.7524 20.5859 12.906 22.2806 13.2476 24.1322C11.4165 24.7725 9.32041 24.655 7.50633 23.6433C5.69229 22.6315 4.53871 20.9368 4.19715 19.085ZM14.4052 30.7493C14.4052 28.8205 16.0239 27.2567 18.0208 27.2567C20.0176 27.2567 21.6365 28.8205 21.6365 30.7493C21.6365 32.678 20.0176 34.2419 18.0208 34.2419C16.0239 34.2419 14.4052 32.678 14.4052 30.7493Z" fill="#81818B"/>
</svg>
