<svg width="159" height="30" viewBox="0 0 159 30" fill="none" xmlns="http://www.w3.org/2000/svg">
<path d="M4.13223 3.29559C6.28641 1.33372 9.2115 0.188585 12.1761 0.0461529C13.1908 0.0461529 14.2085 0.0519279 15.2231 0.0432129C15.1713 1.08088 15.2231 2.12137 15.1926 3.15898C15.0494 5.47838 14.1505 7.74544 12.6362 9.56488C10.6679 12.0122 7.65755 13.6543 4.4613 14.0787C3.0658 14.2938 1.64893 14.1572 0.244343 14.195C0.268703 13.0527 0.192525 11.9076 0.286972 10.7682C0.561232 7.9431 1.95978 5.23714 4.13223 3.29559Z" fill="#81818B"/>
<path d="M16.1627 0.0432129C17.2505 0.0548679 18.3382 0.0374383 19.429 0.0490408C22.1438 0.232108 24.8221 1.22614 26.8664 2.94977C29.1211 4.79536 30.6662 7.43448 31.0621 10.2538C31.2358 11.5617 31.1261 12.8841 31.1933 14.1978C30.2425 14.195 29.2949 14.1921 28.3441 14.1978C26.0074 14.1368 23.71 13.416 21.7538 12.2011C20.8519 11.5849 19.9256 10.9601 19.2492 10.1055C17.7654 8.52438 16.7569 6.53925 16.376 4.4466C16.0895 2.99329 16.2053 1.51101 16.1627 0.0432129Z" fill="#81818B"/>
<path d="M0.246398 15.0291C1.21229 15.0813 2.18123 14.9854 3.14403 15.0872C7.26654 15.1714 11.2672 17.3804 13.4031 20.7432C14.628 22.6266 15.2861 24.8589 15.2008 27.0763C15.1977 27.8035 15.2099 28.5269 15.1886 29.2509C13.659 29.2068 12.1142 29.326 10.5999 29.044C7.23609 28.5038 4.14347 26.5939 2.28172 23.8677C0.870991 21.8854 0.167176 19.4644 0.240308 17.0723C0.240308 16.3892 0.240308 15.7091 0.246398 15.0291Z" fill="#81818B"/>
<path d="M26.045 15.337C27.7026 14.9853 29.4115 15.0434 31.0967 15.0434L31.1702 15.1132C31.1335 16.6333 31.2584 18.1708 30.9387 19.6735C30.2651 23.045 27.9252 26.0559 24.7775 27.7097C22.8183 28.7506 20.5697 29.2619 18.3302 29.2388C17.6142 29.242 16.8951 29.2273 16.1791 29.2472C16.1791 27.9888 16.1242 26.7248 16.2735 25.4717C16.6209 22.4404 18.3394 19.6182 20.8104 17.7116C22.34 16.5606 24.1377 15.7265 26.045 15.337Z" fill="#81818B"/>
<path d="M43.6784 23.6211C43.6784 24.1328 43.4925 24.5657 43.1218 24.92C42.7706 25.2547 42.327 25.422 41.791 25.422C41.2749 25.422 40.8418 25.2547 40.4911 24.92C40.1404 24.5657 39.965 24.1328 39.965 23.6211V5.37753C39.965 4.86582 40.1404 4.44272 40.4911 4.10819C40.8623 3.75392 41.3164 3.57678 41.8529 3.57678C42.389 3.57678 42.8221 3.75392 43.1523 4.10819C43.503 4.44272 43.6784 4.86582 43.6784 5.37753V23.6211Z" fill="#81818B"/>
<path d="M58.5842 9.62842C59.1202 9.62842 59.5638 9.8055 59.915 10.1598C60.2652 10.4943 60.4405 10.9174 60.4405 11.4291V18.9273C60.4405 21.0134 59.8321 22.6665 58.6151 23.8867C57.3976 25.1069 55.6441 25.7168 53.3536 25.7168C51.064 25.7168 49.31 25.1069 48.0931 23.8867C46.8966 22.6665 46.2981 21.0134 46.2981 18.9273V11.4291C46.2981 10.9174 46.4734 10.4943 46.8241 10.1598C47.1748 9.8055 47.6185 9.62842 48.155 9.62842C48.6916 9.62842 49.1347 9.8055 49.4854 10.1598C49.8366 10.4943 50.0119 10.9174 50.0119 11.4291V18.9273C50.0119 20.1278 50.2907 21.0232 50.8472 21.6136C51.4043 22.1844 52.24 22.4697 53.3536 22.4697C54.4891 22.4697 55.3344 22.1844 55.8919 21.6136C56.4484 21.0232 56.7272 20.1278 56.7272 18.9273V11.4291C56.7272 10.9174 56.9026 10.4943 57.2533 10.1598C57.604 9.8055 58.0476 9.62842 58.5842 9.62842Z" fill="#81818B"/>
<path d="M71.6099 9.33325C73.2605 9.33325 74.4775 9.71698 75.2618 10.4845C76.0456 11.2324 76.5617 12.2065 76.809 13.407L76.2829 13.1413L76.5307 12.669C76.778 12.2163 77.1597 11.7342 77.6758 11.2225C78.1913 10.6912 78.8103 10.2484 79.5322 9.89411C80.275 9.52015 81.1003 9.33325 82.0081 9.33325C83.4938 9.33325 84.6178 9.63828 85.3812 10.2483C86.1655 10.8584 86.7016 11.6752 86.9903 12.6986C87.2796 13.7022 87.424 14.824 87.424 16.0639V23.6211C87.424 24.1328 87.2486 24.5656 86.8974 24.92C86.5467 25.2547 86.1036 25.422 85.567 25.422C85.031 25.422 84.5869 25.2547 84.2362 24.92C83.8855 24.5656 83.7101 24.1328 83.7101 23.6211V16.0639C83.7101 15.4144 83.6277 14.8339 83.4628 14.3221C83.2975 13.7908 82.9982 13.3677 82.5651 13.0528C82.132 12.7379 81.513 12.5804 80.7087 12.5804C79.9243 12.5804 79.2539 12.7379 78.6969 13.0528C78.1393 13.3677 77.7167 13.7908 77.428 14.3221C77.1597 14.8339 77.0253 15.4144 77.0253 16.0639V23.6211C77.0253 24.1328 76.8499 24.5656 76.4998 24.92C76.1491 25.2547 75.7049 25.422 75.1689 25.422C74.6323 25.422 74.1887 25.2547 73.8385 24.92C73.4873 24.5656 73.312 24.1328 73.312 23.6211V16.0639C73.312 15.4144 73.2295 14.8339 73.0642 14.3221C72.8993 13.7908 72.6001 13.3677 72.1669 13.0528C71.7338 12.7379 71.1143 12.5804 70.31 12.5804C69.5262 12.5804 68.8558 12.7379 68.2982 13.0528C67.7417 13.3677 67.3186 13.7908 67.0298 14.3221C66.7615 14.8339 66.6277 15.4144 66.6277 16.0639V23.6211C66.6277 24.1328 66.4523 24.5656 66.1016 24.92C65.7504 25.2547 65.3073 25.422 64.7707 25.422C64.2342 25.422 63.7911 25.2547 63.4399 24.92C63.0892 24.5656 62.9138 24.1328 62.9138 23.6211V11.4292C62.9138 10.9175 63.0892 10.4943 63.4399 10.1598C63.7911 9.80554 64.2342 9.62846 64.7707 9.62846C65.3073 9.62846 65.7504 9.80554 66.1016 10.1598C66.4523 10.4943 66.6277 10.9175 66.6277 11.4292V12.6986L66.163 12.61C66.3489 12.2754 66.6072 11.9211 66.9369 11.5472C67.2671 11.1536 67.6693 10.7895 68.1439 10.455C68.6185 10.1204 69.1445 9.85473 69.722 9.65791C70.3 9.44145 70.9295 9.33325 71.6099 9.33325Z" fill="#81818B"/>
<path d="M93.3927 23.6211C93.3927 24.1328 93.2173 24.5656 92.8661 24.92C92.5159 25.2547 92.0723 25.422 91.5358 25.422C90.9997 25.422 90.5556 25.2547 90.2049 24.92C89.8547 24.5656 89.6794 24.1328 89.6794 23.6211V11.4292C89.6794 10.9175 89.8547 10.4943 90.2049 10.1598C90.5556 9.80555 90.9997 9.62846 91.5358 9.62846C92.0723 9.62846 92.5159 9.80555 92.8661 10.1598C93.2173 10.4943 93.3927 10.9175 93.3927 11.4292V23.6211ZM91.5048 7.70959C90.8034 7.70959 90.3083 7.60139 90.019 7.38488C89.7308 7.16842 89.5864 6.78464 89.5864 6.2336V5.67269C89.5864 5.10202 89.7413 4.71819 90.05 4.52142C90.3802 4.30491 90.8758 4.19666 91.5358 4.19666C92.2582 4.19666 92.7637 4.30491 93.052 4.52142C93.3412 4.73788 93.4856 5.12165 93.4856 5.67269V6.2336C93.4856 6.80433 93.3307 7.19792 93.021 7.41438C92.7123 7.6112 92.2062 7.70959 91.5048 7.70959Z" fill="#81818B"/>
<path d="M104.513 9.33325C106.039 9.33325 107.195 9.63828 107.979 10.2483C108.784 10.8584 109.33 11.6752 109.619 12.6986C109.929 13.7022 110.083 14.824 110.083 16.0639V23.6211C110.083 24.1328 109.908 24.5656 109.557 24.92C109.206 25.2547 108.763 25.422 108.226 25.422C107.69 25.422 107.246 25.2547 106.896 24.92C106.544 24.5656 106.369 24.1328 106.369 23.6211V16.0639C106.369 15.4144 106.277 14.8339 106.091 14.3221C105.926 13.7908 105.616 13.3677 105.162 13.0528C104.709 12.7379 104.059 12.5804 103.213 12.5804C102.388 12.5804 101.686 12.7379 101.109 13.0528C100.552 13.3677 100.118 13.7908 99.8087 14.3221C99.52 14.8339 99.3751 15.4144 99.3751 16.0639V23.6211C99.3751 24.1328 99.2002 24.5656 98.8495 24.92C98.4988 25.2547 98.0547 25.422 97.5187 25.422C96.9821 25.422 96.5385 25.2547 96.1883 24.92C95.8371 24.5656 95.6617 24.1328 95.6617 23.6211V11.4292C95.6617 10.9175 95.8371 10.4943 96.1883 10.1598C96.5385 9.80554 96.9821 9.62846 97.5187 9.62846C98.0547 9.62846 98.4988 9.80554 98.8495 10.1598C99.2002 10.4943 99.3751 10.9175 99.3751 11.4292V12.6986L98.9115 12.61C99.0973 12.2754 99.3651 11.9211 99.7158 11.5472C100.066 11.1536 100.48 10.7895 100.954 10.455C101.428 10.1204 101.965 9.85473 102.563 9.65791C103.161 9.44145 103.811 9.33325 104.513 9.33325Z" fill="#81818B"/>
<path d="M128.456 17.5398C128.456 19.1536 128.075 20.5805 127.311 21.8203C126.569 23.0405 125.558 23.995 124.278 24.6837C123.02 25.3728 121.607 25.7168 120.039 25.7168C118.471 25.7168 117.047 25.3728 115.768 24.6837C114.51 23.995 113.499 23.0405 112.735 21.8203C111.993 20.5805 111.621 19.1536 111.621 17.5398C111.621 15.9261 111.993 14.5091 112.735 13.2889C113.499 12.0491 114.51 11.0848 115.768 10.396C117.047 9.68747 118.471 9.33325 120.039 9.33325C121.607 9.33325 123.02 9.68747 124.278 10.396C125.558 11.0848 126.569 12.0491 127.311 13.2889C128.075 14.5091 128.456 15.9261 128.456 17.5398ZM124.743 17.5398C124.743 16.5362 124.526 15.6703 124.093 14.9421C123.68 14.1942 123.113 13.6137 122.391 13.2004C121.69 12.7871 120.905 12.5804 120.039 12.5804C119.172 12.5804 118.378 12.7871 117.656 13.2004C116.954 13.6137 116.387 14.1942 115.954 14.9421C115.541 15.6703 115.335 16.5362 115.335 17.5398C115.335 18.5239 115.541 19.3898 115.954 20.1377C116.387 20.8658 116.954 21.4365 117.656 21.8498C118.378 22.2632 119.172 22.4697 120.039 22.4697C120.905 22.4697 121.69 22.2632 122.391 21.8498C123.113 21.4365 123.68 20.8658 124.093 20.1377C124.526 19.3898 124.743 18.5239 124.743 17.5398Z" fill="#81818B"/>
<path d="M142.297 9.62842C142.834 9.62842 143.278 9.8055 143.628 10.1598C143.979 10.4943 144.154 10.9174 144.154 11.4291V18.9273C144.154 21.0134 143.546 22.6665 142.328 23.8867C141.111 25.1069 139.358 25.7168 137.067 25.7168C134.777 25.7168 133.024 25.1069 131.806 23.8867C130.61 22.6665 130.011 21.0134 130.011 18.9273V11.4291C130.011 10.9174 130.187 10.4943 130.538 10.1598C130.889 9.8055 131.332 9.62842 131.868 9.62842C132.405 9.62842 132.849 9.8055 133.199 10.1598C133.55 10.4943 133.725 10.9174 133.725 11.4291V18.9273C133.725 20.1278 134.004 21.0232 134.561 21.6136C135.118 22.1844 135.953 22.4697 137.067 22.4697C138.202 22.4697 139.048 22.1844 139.605 21.6136C140.162 21.0232 140.441 20.1278 140.441 18.9273V11.4291C140.441 10.9174 140.616 10.4943 140.967 10.1598C141.317 9.8055 141.761 9.62842 142.297 9.62842Z" fill="#81818B"/>
<path d="M145.668 22.9716C145.462 22.6961 145.369 22.3419 145.39 21.9089C145.41 21.4759 145.678 21.102 146.195 20.7871C146.524 20.5903 146.875 20.5116 147.247 20.551C147.617 20.5707 147.979 20.7477 148.33 21.0823C148.928 21.653 149.557 22.0958 150.218 22.4107C150.878 22.7256 151.703 22.883 152.693 22.883C153.003 22.8633 153.342 22.824 153.714 22.765C154.086 22.6863 154.406 22.5288 154.673 22.2927C154.962 22.0368 155.107 21.653 155.107 21.1413C155.107 20.7084 154.952 20.364 154.642 20.1081C154.333 19.8523 153.92 19.6359 153.404 19.4587C152.91 19.2816 152.352 19.1143 151.734 18.9569C151.094 18.7797 150.433 18.583 149.753 18.3665C149.093 18.15 148.484 17.8745 147.927 17.5398C147.371 17.1856 146.916 16.7232 146.565 16.1524C146.215 15.5817 146.04 14.8633 146.04 13.9975C146.04 13.0134 146.328 12.177 146.906 11.4882C147.484 10.7994 148.226 10.2681 149.134 9.89411C150.063 9.52015 151.032 9.33325 152.043 9.33325C152.683 9.33325 153.353 9.41195 154.055 9.5694C154.756 9.70716 155.427 9.9433 156.066 10.2779C156.706 10.5927 157.242 11.0159 157.675 11.5472C157.902 11.8424 158.036 12.1967 158.078 12.61C158.119 13.0233 157.923 13.3972 157.489 13.7318C157.181 13.9679 156.82 14.0762 156.406 14.0565C155.994 14.0171 155.653 13.8794 155.385 13.6432C155.035 13.2102 154.56 12.8658 153.962 12.61C153.384 12.3542 152.713 12.2262 151.95 12.2262C151.641 12.2262 151.301 12.2656 150.929 12.3443C150.578 12.4033 150.269 12.551 150.001 12.7871C149.733 13.0036 149.598 13.3578 149.598 13.8498C149.598 14.3025 149.753 14.6666 150.063 14.9421C150.372 15.1979 150.785 15.4144 151.301 15.5916C151.837 15.749 152.404 15.9065 153.003 16.0639C153.621 16.2213 154.251 16.4083 154.89 16.6247C155.53 16.8413 156.118 17.1266 156.654 17.4808C157.191 17.8351 157.624 18.2976 157.954 18.8683C158.284 19.4193 158.449 20.1278 158.449 20.9938C158.449 21.9975 158.14 22.8536 157.52 23.562C156.902 24.2706 156.128 24.8117 155.2 25.1857C154.271 25.5401 153.322 25.7168 152.352 25.7168C151.135 25.7168 149.918 25.5204 148.701 25.1267C147.484 24.7132 146.472 23.995 145.668 22.9716Z" fill="#81818B"/>
</svg>
