<svg width="165" height="35" viewBox="0 0 165 35" fill="none" xmlns="http://www.w3.org/2000/svg">
<path d="M0.430542 23.3943L12.0901 18.3411L18.8011 22.1308L20.1569 34.564L11.8868 34.4979L13.1069 25.8539L11.6834 25.0561L4.70115 30.3753L0.430542 23.3943Z" fill="#81818B"/>
<path d="M19.5472 21.5985L29.8511 28.9783L33.9182 21.8645L25.6479 18.6066V17.0109L33.9182 13.6866L29.8511 6.63892L19.5472 14.019V21.5985Z" fill="#81818B"/>
<path d="M18.8011 13.4209L20.1569 0.987793L11.8868 1.12078L13.1069 9.76406L11.6834 10.5619L4.63338 5.24297L0.430542 12.1576L12.0901 17.2107L18.8011 13.4209Z" fill="#81818B"/>
<path d="M61.5091 16.2858V27.934H65.96V13.0895H59.4784V16.2858H61.5091Z" fill="#81818B"/>
<path d="M61.3699 11.0038C61.7779 11.4191 62.3995 11.6267 63.2337 11.6267C64.069 11.6267 64.6806 11.4191 65.0696 11.0038C65.4781 10.5702 65.6818 10.0284 65.6818 9.37848C65.6818 8.71021 65.4781 8.16846 65.0696 7.75319C64.6806 7.3198 64.069 7.10303 63.2337 7.10303C62.3995 7.10303 61.7779 7.3198 61.3699 7.75319C60.9809 8.16846 60.7861 8.71021 60.7861 9.37848C60.7861 10.0284 60.9809 10.5702 61.3699 11.0038Z" fill="#81818B"/>
<path d="M46.0142 27.6087C47.2752 28.1684 48.8235 28.4486 50.6594 28.4486C52.3845 28.4486 53.8677 28.1864 55.1109 27.6629C56.3535 27.1393 57.3085 26.4078 57.9758 25.4686C58.6625 24.5115 59.0053 23.401 59.0053 22.1368C59.0053 20.9089 58.6814 19.8705 58.032 19.0216C57.4009 18.1549 56.5205 17.4777 55.3891 16.9902C54.2577 16.4844 52.95 16.1684 51.4663 16.0422L49.9086 15.9067C48.9815 15.8343 48.3137 15.5907 47.9058 15.1752C47.4973 14.7599 47.2936 14.2722 47.2936 13.7126C47.2936 13.279 47.4054 12.8818 47.627 12.5206C47.8501 12.1414 48.1835 11.8434 48.6287 11.6266C49.0928 11.4101 49.6582 11.3017 50.326 11.3017C51.0306 11.3017 51.6149 11.4279 52.0785 11.6809C52.1803 11.7344 52.2774 11.7915 52.3683 11.8521L52.3903 11.8672C52.4244 11.8901 52.458 11.9139 52.4906 11.9379C52.7725 12.1474 52.9967 12.3959 53.1636 12.6832C53.4041 13.0805 53.5254 13.5228 53.5254 14.0105H57.9758C57.9758 12.7101 57.6697 11.5815 57.0581 10.6245C56.4465 9.64928 55.5655 8.8999 54.4158 8.376C53.2839 7.83425 51.921 7.56335 50.326 7.56335C48.8051 7.56335 47.4884 7.81635 46.3754 8.32193C45.2629 8.8096 44.3914 9.51383 43.7609 10.4347C43.1482 11.3557 42.8421 12.4484 42.8421 13.7126C42.8421 15.4642 43.4454 16.8727 44.6508 17.9383C45.8562 19.0037 47.47 19.6177 49.4913 19.7802L51.0216 19.9157C52.2638 20.0241 53.1636 20.2679 53.7201 20.6469C54.2761 21.0081 54.5544 21.5047 54.5544 22.1368C54.5544 22.4273 54.5055 22.6997 54.4079 22.9543C54.3354 23.1433 54.2357 23.3222 54.1097 23.4913C53.812 23.8703 53.3768 24.1683 52.8019 24.3854C52.227 24.6019 51.513 24.7102 50.6594 24.7102C49.7139 24.7102 48.9442 24.584 48.351 24.3308C47.7572 24.0601 47.3125 23.7079 47.0148 23.2748C46.7371 22.8411 46.5985 22.3717 46.5985 21.8659H42.1749C42.1749 23.1481 42.4993 24.286 43.1482 25.2789C43.7976 26.2543 44.7526 27.0311 46.0142 27.6087Z" fill="#81818B"/>
<path d="M75.8915 28.1233C74.3516 28.1233 73.1095 27.943 72.1635 27.5815C71.2174 27.2025 70.5223 26.5792 70.0771 25.7125C69.6508 24.8275 69.4371 23.6359 69.4371 22.1368V16.2587H67.1282V13.0895H69.4371V9.08057H73.582V13.0895H78.0335V16.2587H73.582V22.2996C73.582 23.0038 73.7678 23.5455 74.1385 23.9245C74.528 24.286 75.0751 24.4664 75.7802 24.4664H78.0335V28.1233H75.8915Z" fill="#81818B"/>
<path fill-rule="evenodd" clip-rule="evenodd" d="M83.3926 27.7984C84.3938 28.2316 85.5441 28.4486 86.8419 28.4486C88.1213 28.4486 89.2532 28.2316 90.236 27.7984C91.2188 27.3648 92.0352 26.7599 92.6841 25.9836C93.333 25.2068 93.7693 24.3218 93.9913 23.3289H89.9021C89.7168 23.7804 89.3645 24.1594 88.8453 24.4663C88.3261 24.7733 87.6577 24.9272 86.8419 24.9272C86.3363 24.9272 85.8848 24.8686 85.4869 24.7522C85.1839 24.6637 84.9125 24.5415 84.6721 24.3854C84.1156 24.0243 83.7076 23.5182 83.4478 22.8683C83.3758 22.6832 83.3144 22.4895 83.2624 22.2878C83.2094 22.0834 83.1669 21.8708 83.1349 21.6494H94.2696V20.1865C94.2696 18.8321 93.973 17.5861 93.3797 16.4485C92.7859 15.2925 91.9234 14.3625 90.7925 13.6583C89.6795 12.9359 88.3072 12.5747 86.6749 12.5747C85.4323 12.5747 84.3193 12.7915 83.3365 13.2249C82.3726 13.6402 81.5656 14.209 80.9167 14.9314C80.2678 15.6537 79.767 16.4756 79.4137 17.3966C79.0803 18.2993 78.9133 19.2474 78.9133 20.2407V20.7824C78.9133 21.7397 79.0803 22.6786 79.4137 23.5997C79.767 24.5026 80.2678 25.3241 80.9167 26.0646C81.584 26.7872 82.4088 27.3648 83.3926 27.7984ZM83.2115 18.9708C83.2236 18.9135 83.2367 18.857 83.2509 18.8014C83.2897 18.6483 83.3338 18.5015 83.3848 18.3613C83.4131 18.2814 83.4436 18.2035 83.4761 18.1278C83.7538 17.4596 84.1623 16.954 84.6999 16.611C84.901 16.4827 85.1188 16.3784 85.3525 16.2982C85.7462 16.1636 86.1872 16.0963 86.6749 16.0963C87.4357 16.0963 88.0657 16.2679 88.5665 16.611C89.0857 16.9359 89.4753 17.4145 89.7352 18.0465C89.7562 18.0975 89.7761 18.1495 89.7955 18.202C89.826 18.2858 89.8548 18.3717 89.8811 18.4598C89.9205 18.5909 89.9546 18.7266 89.9851 18.8668C90.0071 18.9702 90.026 19.076 90.0428 19.1844H83.1685C83.1816 19.112 83.1958 19.0409 83.2115 18.9708Z" fill="#81818B"/>
<path d="M96.1066 27.934V13.0895H99.6398V16.8282C99.6876 16.6059 99.7422 16.3926 99.8031 16.1881C99.8556 16.0157 99.9118 15.8495 99.9732 15.6899C100.363 14.6785 100.947 13.9202 101.726 13.4144C102.505 12.8907 103.46 12.629 104.592 12.629H104.786C105.936 12.629 106.891 12.8907 107.651 13.4144C108.43 13.9202 109.015 14.6785 109.404 15.6899L109.435 15.7662L109.461 15.836C109.478 15.7867 109.497 15.7381 109.515 15.6899C109.923 14.6785 110.517 13.9202 111.296 13.4144C112.074 12.8907 113.03 12.629 114.161 12.629H114.356C115.505 12.629 116.47 12.8907 117.249 13.4144C118.046 13.9202 118.65 14.6785 119.057 15.6899C119.465 16.7012 119.67 17.9654 119.67 19.4823V27.934H115.218V19.2384C115.218 18.4258 114.996 17.7667 114.55 17.2611C114.124 16.7553 113.512 16.5025 112.715 16.5025C111.917 16.5025 111.286 16.7645 110.823 17.2881C110.359 17.7937 110.127 18.4709 110.127 19.3198V27.934H105.648V19.2384C105.648 18.4258 105.426 17.7667 104.981 17.2611C104.554 16.7553 103.951 16.5025 103.173 16.5025C102.356 16.5025 101.717 16.7645 101.253 17.2881C100.79 17.7937 100.558 18.4709 100.558 19.3198V27.934H96.1066Z" fill="#81818B"/>
<path fill-rule="evenodd" clip-rule="evenodd" d="M131.559 25.0736V27.9341H135.092V18.8322C135.092 17.4597 134.814 16.3402 134.257 15.4732C133.701 14.5883 132.885 13.9293 131.81 13.4959C130.753 13.0625 129.445 12.8457 127.887 12.8457C127.549 12.8457 127.197 12.8492 126.83 12.8564C126.612 12.8608 126.39 12.8662 126.162 12.8728C125.55 12.8909 124.956 12.9179 124.382 12.9541L123.943 12.9829C123.717 12.9982 123.505 13.0132 123.306 13.0285C123.156 13.0398 123.014 13.0512 122.88 13.0625V16.7195C123.455 16.6832 124.094 16.6471 124.799 16.6111C124.996 16.601 125.192 16.5916 125.385 16.5829C125.666 16.5703 125.942 16.5593 126.215 16.5498C126.432 16.5421 126.645 16.5353 126.858 16.5297C127.525 16.5116 128.063 16.5026 128.471 16.5026C129.287 16.5026 129.88 16.6922 130.252 17.0715C130.623 17.4507 130.808 18.0196 130.808 18.7782V18.8322H128.054C126.7 18.8322 125.504 19.0038 124.465 19.347C123.427 19.672 122.62 20.1866 122.045 20.8909C121.47 21.5773 121.183 22.4621 121.183 23.5456C121.183 24.5389 121.414 25.3967 121.878 26.1193C122.342 26.8231 122.981 27.3649 123.797 27.7439C124.632 28.1234 125.597 28.3131 126.69 28.3131C127.748 28.3131 128.638 28.1234 129.362 27.7439C130.103 27.3649 130.678 26.8231 131.086 26.1193C131.158 26.0003 131.225 25.8772 131.287 25.7493C131.376 25.5685 131.454 25.3783 131.524 25.1787L131.559 25.0736ZM130.808 22.4351V21.2431H128.026C127.247 21.2431 126.645 21.4327 126.218 21.812C125.81 22.1732 125.606 22.6698 125.606 23.3018C125.606 23.5993 125.657 23.8696 125.758 24.1134C125.86 24.3577 126.014 24.5747 126.218 24.7644C126.645 25.126 127.247 25.3063 128.026 25.3063C128.174 25.3063 128.318 25.2991 128.456 25.2853C128.569 25.2736 128.679 25.2571 128.785 25.236C128.989 25.1958 129.182 25.1376 129.362 25.0624C129.77 24.8821 130.103 24.5841 130.363 24.1684C130.623 23.7532 130.771 23.1751 130.808 22.4351Z" fill="#81818B"/>
<path d="M137.756 27.9341V13.0895H141.289V17.9892C141.458 16.5905 141.885 15.4627 142.569 14.6065C143.496 13.4689 144.831 12.9 146.575 12.9H147.159V16.6381H146.046C144.822 16.6381 143.876 16.9631 143.209 17.6132C142.541 18.2453 142.207 19.1664 142.207 20.3761V27.9341H137.756Z" fill="#81818B"/>
<path d="M152.803 20.9993H154.278L159.09 27.9341H164.098L157.995 19.4174L163.013 13.0896H158.34L152.803 20.1478V8.15955H148.352V27.9341H152.803V20.9993Z" fill="#81818B"/>
</svg>
